- 
http://www.Speed.Cd      fast  and The Hottest Private Tracker on the net

   signup is open now

Please Seed back to make the speed Faster!!!

------------------nfo--------------------------
-








































          
          
              
              
                    
                    
                    
                    

Our.Idiot.Brother.2011.BRRip.XviD.AC3-SiC

Poster:
[img]http://img525.imageshack.us/img525/5904/mv5bmtu3njm3mzg0ml5bml5.jpg[/img]

IMDB Link:
http://www.imdb.com/title/tt1637706/

Description:
A comedy centered on an idealist who barges into the lives of his three sisters. 

MediaInfo:
General
Complete name                    : Our.Idiot.Brother.2011.BRRip.XviD.AC3-SiC.avi
Format                           : AVI
Format/Info                      : Audio Video Interleave
File size                        : 1.37 GiB
Duration                         : 1h 29mn
Overall bit rate                 : 2 184 Kbps

Video
ID                               : 0
Format                           : MPEG-4 Visual
Format profile                   : Advanced Simple@L5
Format settings, BVOP            : Yes
Format settings, QPel            : No
Format settings, GMC             : No warppoints
Format settings, Matrix          : Default (MPEG)
Muxing mode                      : Packed bitstream
Codec ID                         : XVID
Codec ID/Hint                    : XviD
Duration                         : 1h 29mn
Bit rate                         : 1 793 Kbps
Width                            : 720 pixels
Height                           : 384 pixels
Display aspect ratio             : 1.875
Frame rate                       : 23.976 fps
Color space                      : YUV
Chroma subsampling               : 4:2:0
Bit depth                        : 8 bits
Scan type                        : Progressive
Bits/(Pixel*Frame)               : 0.270
Stream size                      : 1.13 GiB (82%)
Writing library                  : XviD 64

Audio
ID                               : 1
Format                           : AC-3
Format/Info                      : Audio Coding 3
Mode extension                   : CM (complete main)
Codec ID                         : 2000
Duration                         : 1h 29mn
Bit rate mode                    : Constant
Bit rate                         : 384 Kbps
Channel(s)                       : 6 channels
Channel positions                : Front: L C R, Side: L R, LFE
Sampling rate                    : 48.0 KHz
Bit depth                        : 16 bits
Stream size                      : 247 MiB (18%)
Alignment                        : Aligned on interleaves
Interleave, duration             : 64 ms (1.53 video frames)
Interleave, preload duration     : 192 ms
Title                            : refined-oib-720p - [2] 


Screenshots:
[img]http://img62.imageshack.us/img62/893/snap1ik.png[/img]
[img]http://img220.imageshack.us/img220/5668/snap2g.png[/img]
[img]http://img21.imageshack.us/img21/4706/snap3p.png[/img]
[img]http://img4.imageshack.us/img4/8270/snap4eu.png[/img]
[img]http://img211.imageshack.us/img211/7595/snap5.png[/img]


Note : did my thing and it turned out nice... 

Source: 720p REFiNED thnx

Enjoy!

Respects to CaptainHomey, Cyanide, CM8, Rx, THC, ELEKTRI4KA, 
Killerhz, PA, YeFsTe, Box, MrRep and everyone in the struggle...